# Blender v2.77 (sub 0) OBJ File: ''
# www.blender.org
mtllib bolthex4.mtl
o bolthex3
v 0.003464 -0.006000 0.001991
v -0.003464 -0.006000 0.001991
v 0.003464 -0.006000 -0.028009
v -0.003464 -0.006000 -0.028009
v 0.006928 -0.000000 0.001991
v 0.006928 -0.000000 -0.028009
v 0.003464 0.006000 0.001991
v 0.006928 -0.000000 0.001991
v 0.003464 0.006000 -0.028009
v 0.006928 -0.000000 -0.028009
v -0.003464 0.006000 0.001991
v -0.003464 0.006000 -0.028009
v -0.006928 -0.000000 0.001991
v -0.006928 -0.000000 -0.028009
v -0.006928 -0.000000 0.001991
v -0.006928 -0.000000 -0.028009
v 0.006351 -0.011000 0.001991
v -0.006351 -0.011000 0.001991
v -0.012702 -0.000000 0.001991
v -0.006351 0.011000 0.001991
v 0.006351 0.011000 0.001991
v 0.012702 0.000000 0.001991
v 0.006351 -0.011000 0.015991
v -0.006351 -0.011000 0.015991
v 0.012702 0.000000 0.015991
v 0.012702 0.000000 0.001991
v 0.006351 0.011000 0.015991
v 0.012702 0.000000 0.015991
v -0.006351 0.011000 0.015991
v -0.012702 -0.000000 0.015991
v -0.012702 -0.000000 0.001991
v -0.012702 -0.000000 0.015991
v -0.004418 0.004418 0.015991
v -0.004418 -0.004418 0.015991
v 0.004418 -0.004418 0.015991
v 0.004418 0.004418 0.015991
v 0.000050 -0.000050 0.003991
v 0.000050 0.000050 0.003991
v -0.000050 -0.000050 0.003991
v -0.000050 0.000050 0.003991
vn 0.0000 -1.0000 0.0000
vn 0.8660 -0.5000 0.0000
vn 0.8660 0.5000 0.0000
vn 0.0000 1.0000 0.0000
vn -0.8660 0.5000 0.0000
vn -0.8660 -0.5000 0.0000
vn 0.0000 0.0000 -1.0000
vn 0.0000 0.0000 1.0000
vn 0.0000 -0.9397 0.3420
vn 0.9397 0.0000 0.3420
vn -0.9397 0.0000 0.3420
vn 0.0000 0.9397 0.3420
usemtl None
s off
f 1//1 2//1 3//1
f 3//1 2//1 4//1
f 5//2 1//2 6//2
f 6//2 1//2 3//2
f 7//3 8//3 9//3
f 9//3 8//3 10//3
f 11//4 7//4 12//4
f 12//4 7//4 9//4
f 13//5 11//5 14//5
f 14//5 11//5 12//5
f 2//6 15//6 4//6
f 4//6 15//6 16//6
f 12//7 9//7 16//7
f 16//7 9//7 10//7
f 16//7 10//7 4//7
f 4//7 10//7 3//7
f 1//7 17//7 2//7
f 2//7 17//7 18//7
f 2//7 18//7 15//7
f 15//7 18//7 19//7
f 15//7 19//7 11//7
f 11//7 19//7 20//7
f 11//7 20//7 7//7
f 7//7 20//7 21//7
f 7//7 21//7 8//7
f 8//7 21//7 22//7
f 8//7 22//7 1//7
f 1//7 22//7 17//7
f 23//1 24//1 17//1
f 17//1 24//1 18//1
f 25//2 23//2 26//2
f 26//2 23//2 17//2
f 27//3 28//3 21//3
f 21//3 28//3 22//3
f 29//4 27//4 20//4
f 20//4 27//4 21//4
f 30//5 29//5 31//5
f 31//5 29//5 20//5
f 24//6 32//6 18//6
f 18//6 32//6 19//6
f 33//8 32//8 34//8
f 34//8 32//8 24//8
f 34//8 24//8 35//8
f 24//8 23//8 35//8
f 35//8 23//8 28//8
f 35//8 28//8 36//8
f 36//8 28//8 27//8
f 36//8 27//8 33//8
f 33//8 27//8 29//8
f 33//8 29//8 32//8
f 37//8 38//8 39//8
f 39//8 38//8 40//8
f 33//9 40//9 36//9
f 36//9 40//9 38//9
f 34//10 39//10 33//10
f 33//10 39//10 40//10
f 37//11 35//11 38//11
f 38//11 35//11 36//11
f 35//12 37//12 34//12
f 34//12 37//12 39//12
