solid lwrench
   facet normal 8.660254e-001 0.000000e+000 -5.000000e-001
      outer loop
         vertex 5.773503e-003 -9.550177e-002 1.247009e-003
         vertex 2.886751e-003 -9.550177e-002 -3.752990e-003
         vertex 5.773503e-003 1.244982e-001 1.247009e-003
      endloop
   endfacet
   facet normal 8.660254e-001 0.000000e+000 -5.000000e-001
      outer loop
         vertex 5.773503e-003 1.244982e-001 1.247009e-003
         vertex 2.886751e-003 -9.550177e-002 -3.752990e-003
         vertex 2.886751e-003 1.244982e-001 -3.752990e-003
      endloop
   endfacet
   facet normal 8.660254e-001 0.000000e+000 5.000000e-001
      outer loop
         vertex 2.886751e-003 -9.550177e-002 6.247009e-003
         vertex 5.773503e-003 -9.550177e-002 1.247009e-003
         vertex 2.886751e-003 1.244982e-001 6.247009e-003
      endloop
   endfacet
   facet normal 8.660254e-001 0.000000e+000 5.000000e-001
      outer loop
         vertex 2.886751e-003 1.244982e-001 6.247009e-003
         vertex 5.773503e-003 -9.550177e-002 1.247009e-003
         vertex 5.773503e-003 1.244982e-001 1.247009e-003
      endloop
   endfacet
   facet normal 0.000000e+000 0.000000e+000 1.000000e+000
      outer loop
         vertex -2.886751e-003 -9.550177e-002 6.247009e-003
         vertex 2.886751e-003 -9.550177e-002 6.247009e-003
         vertex -2.886751e-003 1.244982e-001 6.247009e-003
      endloop
   endfacet
   facet normal 0.000000e+000 0.000000e+000 1.000000e+000
      outer loop
         vertex -2.886751e-003 1.244982e-001 6.247009e-003
         vertex 2.886751e-003 -9.550177e-002 6.247009e-003
         vertex 2.886751e-003 1.244982e-001 6.247009e-003
      endloop
   endfacet
   facet normal -8.660254e-001 -0.000000e+000 5.000000e-001
      outer loop
         vertex -5.773503e-003 -9.550177e-002 1.247009e-003
         vertex -2.886751e-003 -9.550177e-002 6.247009e-003
         vertex -5.773503e-003 1.244982e-001 1.247009e-003
      endloop
   endfacet
   facet normal -8.660254e-001 -0.000000e+000 5.000000e-001
      outer loop
         vertex -5.773503e-003 1.244982e-001 1.247009e-003
         vertex -2.886751e-003 -9.550177e-002 6.247009e-003
         vertex -2.886751e-003 1.244982e-001 6.247009e-003
      endloop
   endfacet
   facet normal -8.660254e-001 0.000000e+000 -5.000000e-001
      outer loop
         vertex -2.886751e-003 -9.550177e-002 -3.752990e-003
         vertex -5.773503e-003 -9.550177e-002 1.247009e-003
         vertex -2.886751e-003 1.244982e-001 -3.752990e-003
      endloop
   endfacet
   facet normal -8.660254e-001 0.000000e+000 -5.000000e-001
      outer loop
         vertex -2.886751e-003 1.244982e-001 -3.752990e-003
         vertex -5.773503e-003 -9.550177e-002 1.247009e-003
         vertex -5.773503e-003 1.244982e-001 1.247009e-003
      endloop
   endfacet
   facet normal 0.000000e+000 0.000000e+000 -1.000000e+000
      outer loop
         vertex 2.886751e-003 -9.550177e-002 -3.752990e-003
         vertex -2.886751e-003 -9.550177e-002 -3.752990e-003
         vertex 2.886751e-003 1.244982e-001 -3.752990e-003
      endloop
   endfacet
   facet normal 0.000000e+000 0.000000e+000 -1.000000e+000
      outer loop
         vertex 2.886751e-003 1.244982e-001 -3.752990e-003
         vertex -2.886751e-003 -9.550177e-002 -3.752990e-003
         vertex -2.886751e-003 1.244982e-001 -3.752990e-003
      endloop
   endfacet
   facet normal 0.000000e+000 1.000000e+000 0.000000e+000
      outer loop
         vertex -2.886751e-003 1.244982e-001 6.247009e-003
         vertex 2.886751e-003 1.244982e-001 6.247009e-003
         vertex -5.773503e-003 1.244982e-001 1.247009e-003
      endloop
   endfacet
   facet normal 0.000000e+000 1.000000e+000 0.000000e+000
      outer loop
         vertex -5.773503e-003 1.244982e-001 1.247009e-003
         vertex 2.886751e-003 1.244982e-001 6.247009e-003
         vertex 5.773503e-003 1.244982e-001 1.247009e-003
      endloop
   endfacet
   facet normal 0.000000e+000 1.000000e+000 0.000000e+000
      outer loop
         vertex -5.773503e-003 1.244982e-001 1.247009e-003
         vertex 5.773503e-003 1.244982e-001 1.247009e-003
         vertex -2.886751e-003 1.244982e-001 -3.752990e-003
      endloop
   endfacet
   facet normal 0.000000e+000 1.000000e+000 0.000000e+000
      outer loop
         vertex -2.886751e-003 1.244982e-001 -3.752990e-003
         vertex 5.773503e-003 1.244982e-001 1.247009e-003
         vertex 2.886751e-003 1.244982e-001 -3.752990e-003
      endloop
   endfacet
   facet normal -8.666183e-001 2.609026e-002 -4.982890e-001
      outer loop
         vertex -5.773503e-003 -9.550177e-002 1.247009e-003
         vertex -2.886751e-003 -9.550177e-002 -3.752990e-003
         vertex -5.773503e-003 -9.706611e-002 1.123893e-003
      endloop
   endfacet
   facet normal -8.666915e-001 5.505609e-002 -4.957971e-001
      outer loop
         vertex -5.773503e-003 -9.706611e-002 1.123893e-003
         vertex -2.886751e-003 -9.550177e-002 -3.752990e-003
         vertex -2.886751e-003 -9.637002e-002 -3.828952e-003
      endloop
   endfacet
   facet normal -8.660327e-001 8.394364e-002 -4.928903e-001
      outer loop
         vertex -5.773503e-003 -9.706611e-002 1.123893e-003
         vertex -2.886751e-003 -9.637002e-002 -3.828952e-003
         vertex -5.773503e-003 -9.723542e-002 1.083249e-003
      endloop
   endfacet
   facet normal -8.664942e-001 1.094326e-001 -4.870444e-001
      outer loop
         vertex -5.773503e-003 -9.723542e-002 1.083249e-003
         vertex -2.886751e-003 -9.637002e-002 -3.828952e-003
         vertex -5.773503e-003 -9.859195e-002 7.575746e-004
      endloop
   endfacet
   facet normal -8.666403e-001 1.375451e-001 -4.795998e-001
      outer loop
         vertex -5.773503e-003 -9.859195e-002 7.575746e-004
         vertex -2.886751e-003 -9.637002e-002 -3.828952e-003
         vertex -2.886751e-003 -9.721188e-002 -4.054528e-003
      endloop
   endfacet
   facet normal -8.660547e-001 1.655006e-001 -4.717616e-001
      outer loop
         vertex -5.773503e-003 -9.859195e-002 7.575746e-004
         vertex -2.886751e-003 -9.721188e-002 -4.054528e-003
         vertex -5.773503e-003 -9.891383e-002 6.242488e-004
      endloop
   endfacet
   facet normal -8.663845e-001 1.897359e-001 -4.619288e-001
      outer loop
         vertex -5.773503e-003 -9.891383e-002 6.242488e-004
         vertex -2.886751e-003 -9.721188e-002 -4.054528e-003
         vertex -5.773503e-003 -1.000417e-001 1.570747e-004
      endloop
   endfacet
   facet normal -8.666037e-001 2.161460e-001 -4.497543e-001
      outer loop
         vertex -5.773503e-003 -1.000417e-001 1.570747e-004
         vertex -2.886751e-003 -9.721188e-002 -4.054528e-003
         vertex -2.886751e-003 -9.800177e-002 -4.422864e-003
      endloop
   endfacet
   facet normal -8.660913e-001 2.423398e-001 -4.372155e-001
      outer loop
         vertex -5.773503e-003 -1.000417e-001 1.570747e-004
         vertex -2.886751e-003 -9.800177e-002 -4.422864e-003
         vertex -5.773503e-003 -1.004875e-001 -1.160989e-004
      endloop
   endfacet
   facet normal -8.662893e-001 2.647011e-001 -4.236464e-001
      outer loop
         vertex -5.773503e-003 -1.004875e-001 -1.160989e-004
         vertex -2.886751e-003 -9.800177e-002 -4.422864e-003
         vertex -5.773503e-003 -1.013796e-001 -6.628206e-004
      endloop
   endfacet
   facet normal -8.665818e-001 2.886141e-001 -4.071092e-001
      outer loop
         vertex -5.773503e-003 -1.013796e-001 -6.628206e-004
         vertex -2.886751e-003 -9.800177e-002 -4.422864e-003
         vertex -2.886751e-003 -9.871572e-002 -4.922769e-003
      endloop
   endfacet
   facet normal -8.661426e-001 3.122656e-001 -3.902400e-001
      outer loop
         vertex -5.773503e-003 -1.013796e-001 -6.628206e-004
         vertex -2.886751e-003 -9.871572e-002 -4.922769e-003
         vertex -5.773503e-003 -1.019099e-001 -1.115697e-003
      endloop
   endfacet
   facet normal -8.662086e-001 3.321805e-001 -3.732811e-001
      outer loop
         vertex -5.773503e-003 -1.019099e-001 -1.115697e-003
         vertex -2.886751e-003 -9.871572e-002 -4.922769e-003
         vertex -5.773503e-003 -1.025728e-001 -1.681923e-003
      endloop
   endfacet
   facet normal -8.665745e-001 3.528801e-001 -3.528801e-001
      outer loop
         vertex -5.773503e-003 -1.025728e-001 -1.681923e-003
         vertex -2.886751e-003 -9.871572e-002 -4.922769e-003
         vertex -2.886751e-003 -9.933200e-002 -5.539053e-003
      endloop
   endfacet
   facet normal -8.662086e-001 3.732811e-001 -3.321805e-001
      outer loop
         vertex -5.773503e-003 -1.025728e-001 -1.681923e-003
         vertex -2.886751e-003 -9.933200e-002 -5.539053e-003
         vertex -5.773503e-003 -1.031391e-001 -2.344887e-003
      endloop
   endfacet
   facet normal -8.661426e-001 3.902400e-001 -3.122656e-001
      outer loop
         vertex -5.773503e-003 -1.031391e-001 -2.344887e-003
         vertex -2.886751e-003 -9.933200e-002 -5.539053e-003
         vertex -5.773503e-003 -1.035919e-001 -2.875138e-003
      endloop
   endfacet
   facet normal -8.665818e-001 4.071092e-001 -2.886141e-001
      outer loop
         vertex -5.773503e-003 -1.035919e-001 -2.875138e-003
         vertex -2.886751e-003 -9.933200e-002 -5.539053e-003
         vertex -2.886751e-003 -9.983190e-002 -6.252991e-003
      endloop
   endfacet
   facet normal -8.662893e-001 4.236464e-001 -2.647011e-001
      outer loop
         vertex -5.773503e-003 -1.035919e-001 -2.875138e-003
         vertex -2.886751e-003 -9.983190e-002 -6.252991e-003
         vertex -5.773503e-003 -1.041387e-001 -3.767307e-003
      endloop
   endfacet
   facet normal -8.660913e-001 4.372155e-001 -2.423398e-001
      outer loop
         vertex -5.773503e-003 -1.041387e-001 -3.767307e-003
         vertex -2.886751e-003 -9.983190e-002 -6.252991e-003
         vertex -5.773503e-003 -1.044118e-001 -4.213086e-003
      endloop
   endfacet
   facet normal -8.666037e-001 4.497542e-001 -2.161460e-001
      outer loop
         vertex -5.773503e-003 -1.044118e-001 -4.213086e-003
         vertex -2.886751e-003 -9.983190e-002 -6.252991e-003
         vertex -2.886751e-003 -1.002002e-001 -7.042890e-003
      endloop
   endfacet
   facet normal -8.663845e-001 4.619288e-001 -1.897359e-001
      outer loop
         vertex -5.773503e-003 -1.044118e-001 -4.213086e-003
         vertex -2.886751e-003 -1.002002e-001 -7.042890e-003
         vertex -5.773503e-003 -1.048790e-001 -5.340944e-003
      endloop
   endfacet
   facet normal -8.660547e-001 4.717616e-001 -1.655006e-001
      outer loop
         vertex -5.773503e-003 -1.048790e-001 -5.340944e-003
         vertex -2.886751e-003 -1.002002e-001 -7.042890e-003
         vertex -5.773503e-003 -1.050123e-001 -5.662821e-003
      endloop
   endfacet
   facet normal -8.666403e-001 4.795998e-001 -1.375451e-001
      outer loop
         vertex -5.773503e-003 -1.050123e-001 -5.662821e-003
         vertex -2.886751e-003 -1.002002e-001 -7.042890e-003
         vertex -2.886751e-003 -1.004258e-001 -7.884750e-003
      endloop
   endfacet
   facet normal -8.664942e-001 4.870444e-001 -1.094326e-001
      outer loop
         vertex -5.773503e-003 -1.050123e-001 -5.662821e-003
         vertex -2.886751e-003 -1.004258e-001 -7.884750e-003
         vertex -5.773503e-003 -1.053380e-001 -7.019351e-003
      endloop
   endfacet
   facet normal -8.660327e-001 4.928903e-001 -8.394363e-002
      outer loop
         vertex -5.773503e-003 -1.053380e-001 -7.019351e-003
         vertex -2.886751e-003 -1.004258e-001 -7.884750e-003
         vertex -5.773503e-003 -1.053787e-001 -7.188646e-003
      endloop
   endfacet
   facet normal -8.666915e-001 4.957971e-001 -5.505609e-002
      outer loop
         vertex -5.773503e-003 -1.053787e-001 -7.188646e-003
         vertex -2.886751e-003 -1.004258e-001 -7.884750e-003
         vertex -2.886751e-003 -1.005018e-001 -8.752991e-003
      endloop
   endfacet
   facet normal -8.666183e-001 4.982890e-001 -2.609026e-002
      outer loop
         vertex -5.773503e-003 -1.053787e-001 -7.188646e-003
         vertex -2.886751e-003 -1.005018e-001 -8.752991e-003
         vertex -5.773503e-003 -1.055018e-001 -8.752991e-003
      endloop
   endfacet
   facet normal 0.000000e+000 9.983120e-001 -5.807914e-002
      outer loop
         vertex 2.886751e-003 -1.005018e-001 -8.752991e-003
         vertex -2.886751e-003 -1.005018e-001 -8.752991e-003
         vertex 2.886751e-003 -1.004258e-001 -7.884750e-003
      endloop
   endfacet
   facet normal 0.000000e+000 9.932307e-001 -1.161583e-001
      outer loop
         vertex 2.886751e-003 -1.004258e-001 -7.884750e-003
         vertex -2.886751e-003 -1.005018e-001 -8.752991e-003
         vertex -2.886751e-003 -1.004258e-001 -7.884750e-003
      endloop
   endfacet
   facet normal 0.000000e+000 9.730600e-001 -2.305519e-001
      outer loop
         vertex 2.886751e-003 -1.004258e-001 -7.884750e-003
         vertex -2.886751e-003 -1.004258e-001 -7.884750e-003
         vertex 2.886751e-003 -1.002002e-001 -7.042890e-003
      endloop
   endfacet
   facet normal 0.000000e+000 9.579706e-001 -2.868663e-001
      outer loop
         vertex 2.886751e-003 -1.002002e-001 -7.042890e-003
         vertex -2.886751e-003 -1.004258e-001 -7.884750e-003
         vertex -2.886751e-003 -1.002002e-001 -7.042890e-003
      endloop
   endfacet
   facet normal 0.000000e+000 9.182422e-001 -3.960194e-001
      outer loop
         vertex 2.886751e-003 -1.002002e-001 -7.042890e-003
         vertex -2.886751e-003 -1.002002e-001 -7.042890e-003
         vertex 2.886751e-003 -9.983190e-002 -6.252991e-003
      endloop
   endfacet
   facet normal 0.000000e+000 8.936031e-001 -4.488580e-001
      outer loop
         vertex 2.886751e-003 -9.983190e-002 -6.252991e-003
         vertex -2.886751e-003 -1.002002e-001 -7.042890e-003
         vertex -2.886751e-003 -9.983190e-002 -6.252991e-003
      endloop
   endfacet
   facet normal 0.000000e+000 8.355240e-001 -5.494540e-001
      outer loop
         vertex 2.886751e-003 -9.983190e-002 -6.252991e-003
         vertex -2.886751e-003 -9.983190e-002 -6.252991e-003
         vertex 2.886751e-003 -9.933200e-002 -5.539053e-003
      endloop
   endfacet
   facet normal 0.000000e+000 8.020839e-001 -5.972114e-001
      outer loop
         vertex 2.886751e-003 -9.933200e-002 -5.539053e-003
         vertex -2.886751e-003 -9.983190e-002 -6.252991e-003
         vertex -2.886751e-003 -9.933200e-002 -5.539053e-003
      endloop
   endfacet
   facet normal 0.000000e+000 7.274188e-001 -6.861938e-001
      outer loop
         vertex 2.886751e-003 -9.933200e-002 -5.539053e-003
         vertex -2.886751e-003 -9.933200e-002 -5.539053e-003
         vertex 2.886751e-003 -9.871572e-002 -4.922769e-003
      endloop
   endfacet
   facet normal 0.000000e+000 6.861938e-001 -7.274188e-001
      outer loop
         vertex 2.886751e-003 -9.871572e-002 -4.922769e-003
         vertex -2.886751e-003 -9.933200e-002 -5.539053e-003
         vertex -2.886751e-003 -9.871572e-002 -4.922769e-003
      endloop
   endfacet
   facet normal 0.000000e+000 5.972114e-001 -8.020839e-001
      outer loop
         vertex 2.886751e-003 -9.871572e-002 -4.922769e-003
         vertex -2.886751e-003 -9.871572e-002 -4.922769e-003
         vertex 2.886751e-003 -9.800177e-002 -4.422864e-003
      endloop
   endfacet
   facet normal 0.000000e+000 5.494540e-001 -8.355240e-001
      outer loop
         vertex 2.886751e-003 -9.800177e-002 -4.422864e-003
         vertex -2.886751e-003 -9.871572e-002 -4.922769e-003
         vertex -2.886751e-003 -9.800177e-002 -4.422864e-003
      endloop
   endfacet
   facet normal 0.000000e+000 4.488580e-001 -8.936031e-001
      outer loop
         vertex 2.886751e-003 -9.800177e-002 -4.422864e-003
         vertex -2.886751e-003 -9.800177e-002 -4.422864e-003
         vertex 2.886751e-003 -9.721188e-002 -4.054528e-003
      endloop
   endfacet
   facet normal 0.000000e+000 3.960194e-001 -9.182422e-001
      outer loop
         vertex 2.886751e-003 -9.721188e-002 -4.054528e-003
         vertex -2.886751e-003 -9.800177e-002 -4.422864e-003
         vertex -2.886751e-003 -9.721188e-002 -4.054528e-003
      endloop
   endfacet
   facet normal 0.000000e+000 2.868663e-001 -9.579706e-001
      outer loop
         vertex 2.886751e-003 -9.721188e-002 -4.054528e-003
         vertex -2.886751e-003 -9.721188e-002 -4.054528e-003
         vertex 2.886751e-003 -9.637002e-002 -3.828952e-003
      endloop
   endfacet
   facet normal 0.000000e+000 2.305519e-001 -9.730600e-001
      outer loop
         vertex 2.886751e-003 -9.637002e-002 -3.828952e-003
         vertex -2.886751e-003 -9.721188e-002 -4.054528e-003
         vertex -2.886751e-003 -9.637002e-002 -3.828952e-003
      endloop
   endfacet
   facet normal 0.000000e+000 1.161583e-001 -9.932307e-001
      outer loop
         vertex 2.886751e-003 -9.637002e-002 -3.828952e-003
         vertex -2.886751e-003 -9.637002e-002 -3.828952e-003
         vertex 2.886751e-003 -9.550177e-002 -3.752990e-003
      endloop
   endfacet
   facet normal 0.000000e+000 5.807914e-002 -9.983120e-001
      outer loop
         vertex 2.886751e-003 -9.550177e-002 -3.752990e-003
         vertex -2.886751e-003 -9.637002e-002 -3.828952e-003
         vertex -2.886751e-003 -9.550177e-002 -3.752990e-003
      endloop
   endfacet
   facet normal 8.667573e-001 2.896582e-002 -4.978884e-001
      outer loop
         vertex 2.886751e-003 -9.550177e-002 -3.752990e-003
         vertex 5.773503e-003 -9.550177e-002 1.247009e-003
         vertex 2.886751e-003 -9.637002e-002 -3.828952e-003
      endloop
   endfacet
   facet normal 8.667573e-001 5.793165e-002 -4.953542e-001
      outer loop
         vertex 2.886751e-003 -9.637002e-002 -3.828952e-003
         vertex 5.773503e-003 -9.550177e-002 1.247009e-003
         vertex 5.773503e-003 -9.723825e-002 1.095087e-003
      endloop
   endfacet
   facet normal 8.667573e-001 1.149832e-001 -4.852944e-001
      outer loop
         vertex 2.886751e-003 -9.637002e-002 -3.828952e-003
         vertex 5.773503e-003 -9.723825e-002 1.095087e-003
         vertex 2.886751e-003 -9.721188e-002 -4.054528e-003
      endloop
   endfacet
   facet normal 8.667573e-001 1.430689e-001 -4.777689e-001
      outer loop
         vertex 2.886751e-003 -9.721188e-002 -4.054528e-003
         vertex 5.773503e-003 -9.723825e-002 1.095087e-003
         vertex 5.773503e-003 -9.892198e-002 6.439356e-004
      endloop
   endfacet
   facet normal 8.667573e-001 1.975068e-001 -4.579552e-001
      outer loop
         vertex 2.886751e-003 -9.721188e-002 -4.054528e-003
         vertex 5.773503e-003 -9.892198e-002 6.439356e-004
         vertex 2.886751e-003 -9.800177e-002 -4.422864e-003
      endloop
   endfacet
   facet normal 8.667573e-001 2.238591e-001 -4.456669e-001
      outer loop
         vertex 2.886751e-003 -9.800177e-002 -4.422864e-003
         vertex 5.773503e-003 -9.892198e-002 6.439356e-004
         vertex 5.773503e-003 -1.005018e-001 -9.273653e-005
      endloop
   endfacet
   facet normal 8.667573e-001 2.740293e-001 -4.167011e-001
      outer loop
         vertex 2.886751e-003 -9.800177e-002 -4.422864e-003
         vertex 5.773503e-003 -1.005018e-001 -9.273653e-005
         vertex 2.886751e-003 -9.871572e-002 -4.922769e-003
      endloop
   endfacet
   facet normal 8.667573e-001 2.978474e-001 -4.000235e-001
      outer loop
         vertex 2.886751e-003 -9.871572e-002 -4.922769e-003
         vertex 5.773503e-003 -1.005018e-001 -9.273653e-005
         vertex 5.773503e-003 -1.019297e-001 -1.092546e-003
      endloop
   endfacet
   facet normal 8.667573e-001 3.422256e-001 -3.627858e-001
      outer loop
         vertex 2.886751e-003 -9.871572e-002 -4.922769e-003
         vertex 5.773503e-003 -1.019297e-001 -1.092546e-003
         vertex 2.886751e-003 -9.933200e-002 -5.539053e-003
      endloop
   endfacet
   facet normal 8.667573e-001 3.627858e-001 -3.422256e-001
      outer loop
         vertex 2.886751e-003 -9.933200e-002 -5.539053e-003
         vertex 5.773503e-003 -1.019297e-001 -1.092546e-003
         vertex 5.773503e-003 -1.031622e-001 -2.325114e-003
      endloop
   endfacet
   facet normal 8.667573e-001 4.000235e-001 -2.978474e-001
      outer loop
         vertex 2.886751e-003 -9.933200e-002 -5.539053e-003
         vertex 5.773503e-003 -1.031622e-001 -2.325114e-003
         vertex 2.886751e-003 -9.983190e-002 -6.252991e-003
      endloop
   endfacet
   facet normal 8.667573e-001 4.167011e-001 -2.740293e-001
      outer loop
         vertex 2.886751e-003 -9.983190e-002 -6.252991e-003
         vertex 5.773503e-003 -1.031622e-001 -2.325114e-003
         vertex 5.773503e-003 -1.041620e-001 -3.752990e-003
      endloop
   endfacet
   facet normal 8.667573e-001 4.456669e-001 -2.238591e-001
      outer loop
         vertex 2.886751e-003 -9.983190e-002 -6.252991e-003
         vertex 5.773503e-003 -1.041620e-001 -3.752990e-003
         vertex 2.886751e-003 -1.002002e-001 -7.042890e-003
      endloop
   endfacet
   facet normal 8.667573e-001 4.579551e-001 -1.975068e-001
      outer loop
         vertex 2.886751e-003 -1.002002e-001 -7.042890e-003
         vertex 5.773503e-003 -1.041620e-001 -3.752990e-003
         vertex 5.773503e-003 -1.048987e-001 -5.332789e-003
      endloop
   endfacet
   facet normal 8.667573e-001 4.777689e-001 -1.430689e-001
      outer loop
         vertex 2.886751e-003 -1.002002e-001 -7.042890e-003
         vertex 5.773503e-003 -1.048987e-001 -5.332789e-003
         vertex 2.886751e-003 -1.004258e-001 -7.884750e-003
      endloop
   endfacet
   facet normal 8.667573e-001 4.852944e-001 -1.149832e-001
      outer loop
         vertex 2.886751e-003 -1.004258e-001 -7.884750e-003
         vertex 5.773503e-003 -1.048987e-001 -5.332789e-003
         vertex 5.773503e-003 -1.053498e-001 -7.016509e-003
      endloop
   endfacet
   facet normal 8.667573e-001 4.953542e-001 -5.793165e-002
      outer loop
         vertex 2.886751e-003 -1.004258e-001 -7.884750e-003
         vertex 5.773503e-003 -1.053498e-001 -7.016509e-003
         vertex 2.886751e-003 -1.005018e-001 -8.752991e-003
      endloop
   endfacet
   facet normal 8.667573e-001 4.978884e-001 -2.896582e-002
      outer loop
         vertex 2.886751e-003 -1.005018e-001 -8.752991e-003
         vertex 5.773503e-003 -1.053498e-001 -7.016509e-003
         vertex 5.773503e-003 -1.055018e-001 -8.752991e-003
      endloop
   endfacet
   facet normal 8.666191e-001 -2.610604e-002 4.982869e-001
      outer loop
         vertex 2.886751e-003 -9.550177e-002 6.247009e-003
         vertex 2.886751e-003 -9.784650e-002 6.041872e-003
         vertex 5.773503e-003 -9.550177e-002 1.247009e-003
      endloop
   endfacet
   facet normal 8.666918e-001 -5.507187e-002 4.957948e-001
      outer loop
         vertex 5.773503e-003 -9.550177e-002 1.247009e-003
         vertex 2.886751e-003 -9.784650e-002 6.041872e-003
         vertex 5.773503e-003 -9.723825e-002 1.095087e-003
      endloop
   endfacet
   facet normal 8.660327e-001 -8.397159e-002 4.928856e-001
      outer loop
         vertex 2.886751e-003 -9.784650e-002 6.041872e-003
         vertex 2.886751e-003 -9.810650e-002 6.019126e-003
         vertex 5.773503e-003 -9.723825e-002 1.095087e-003
      endloop
   endfacet
   facet normal 8.664949e-001 -1.094651e-001 4.870360e-001
      outer loop
         vertex 5.773503e-003 -9.723825e-002 1.095087e-003
         vertex 2.886751e-003 -9.810650e-002 6.019126e-003
         vertex 2.886751e-003 -1.001276e-001 5.477579e-003
      endloop
   endfacet
   facet normal 8.666406e-001 -1.375655e-001 4.795934e-001
      outer loop
         vertex 5.773503e-003 -9.723825e-002 1.095087e-003
         vertex 2.886751e-003 -1.001276e-001 5.477579e-003
         vertex 5.773503e-003 -9.892198e-002 6.439356e-004
      endloop
   endfacet
   facet normal 8.660545e-001 -1.655354e-001 4.717496e-001
      outer loop
         vertex 2.886751e-003 -1.001276e-001 5.477579e-003
         vertex 2.886751e-003 -1.006321e-001 5.342399e-003
         vertex 5.773503e-003 -9.892198e-002 6.439356e-004
      endloop
   endfacet
   facet normal 8.663849e-001 -1.897672e-001 4.619152e-001
      outer loop
         vertex 5.773503e-003 -9.892198e-002 6.439356e-004
         vertex 2.886751e-003 -1.006321e-001 5.342399e-003
         vertex 2.886751e-003 -1.022914e-001 4.568657e-003
      endloop
   endfacet
   facet normal 8.666039e-001 -2.161627e-001 4.497459e-001
      outer loop
         vertex 5.773503e-003 -9.892198e-002 6.439356e-004
         vertex 2.886751e-003 -1.022914e-001 4.568657e-003
         vertex 5.773503e-003 -1.005018e-001 -9.273653e-005
      endloop
   endfacet
   facet normal 8.660911e-001 -2.423667e-001 4.372009e-001
      outer loop
         vertex 2.886751e-003 -1.022914e-001 4.568657e-003
         vertex 2.886751e-003 -1.030018e-001 4.237391e-003
         vertex 5.773503e-003 -1.005018e-001 -9.273653e-005
      endloop
   endfacet
   facet normal 8.662894e-001 -2.647202e-001 4.236341e-001
      outer loop
         vertex 5.773503e-003 -1.005018e-001 -9.273653e-005
         vertex 2.886751e-003 -1.030018e-001 4.237391e-003
         vertex 2.886751e-003 -1.042871e-001 3.337379e-003
      endloop
   endfacet
   facet normal 8.665819e-001 -2.886228e-001 4.071029e-001
      outer loop
         vertex 5.773503e-003 -1.005018e-001 -9.273653e-005
         vertex 2.886751e-003 -1.042871e-001 3.337379e-003
         vertex 5.773503e-003 -1.019297e-001 -1.092546e-003
      endloop
   endfacet
   facet normal 8.661424e-001 -3.122776e-001 3.902307e-001
      outer loop
         vertex 2.886751e-003 -1.042871e-001 3.337379e-003
         vertex 2.886751e-003 -1.051436e-001 2.737676e-003
         vertex 5.773503e-003 -1.019297e-001 -1.092546e-003
      endloop
   endfacet
   facet normal 8.662086e-001 -3.321839e-001 3.732782e-001
      outer loop
         vertex 5.773503e-003 -1.019297e-001 -1.092546e-003
         vertex 2.886751e-003 -1.051436e-001 2.737676e-003
         vertex 2.886751e-003 -1.060680e-001 1.813250e-003
      endloop
   endfacet
   facet normal 8.665745e-001 -3.528801e-001 3.528801e-001
      outer loop
         vertex 5.773503e-003 -1.019297e-001 -1.092546e-003
         vertex 2.886751e-003 -1.060680e-001 1.813250e-003
         vertex 5.773503e-003 -1.031622e-001 -2.325114e-003
      endloop
   endfacet
   facet normal 8.662086e-001 -3.732782e-001 3.321839e-001
      outer loop
         vertex 2.886751e-003 -1.060680e-001 1.813250e-003
         vertex 2.886751e-003 -1.069924e-001 8.888235e-004
         vertex 5.773503e-003 -1.031622e-001 -2.325114e-003
      endloop
   endfacet
   facet normal 8.661424e-001 -3.902308e-001 3.122776e-001
      outer loop
         vertex 5.773503e-003 -1.031622e-001 -2.325114e-003
         vertex 2.886751e-003 -1.069924e-001 8.888235e-004
         vertex 2.886751e-003 -1.075921e-001 3.235906e-005
      endloop
   endfacet
   facet normal 8.665819e-001 -4.071030e-001 2.886228e-001
      outer loop
         vertex 5.773503e-003 -1.031622e-001 -2.325114e-003
         vertex 2.886751e-003 -1.075921e-001 3.235906e-005
         vertex 5.773503e-003 -1.041620e-001 -3.752990e-003
      endloop
   endfacet
   facet normal 8.662894e-001 -4.236341e-001 2.647202e-001
      outer loop
         vertex 2.886751e-003 -1.075921e-001 3.235906e-005
         vertex 2.886751e-003 -1.084922e-001 -1.252991e-003
         vertex 5.773503e-003 -1.041620e-001 -3.752990e-003
      endloop
   endfacet
   facet normal 8.660911e-001 -4.372009e-001 2.423667e-001
      outer loop
         vertex 5.773503e-003 -1.041620e-001 -3.752990e-003
         vertex 2.886751e-003 -1.084922e-001 -1.252991e-003
         vertex 2.886751e-003 -1.088234e-001 -1.963394e-003
      endloop
   endfacet
   facet normal 8.666039e-001 -4.497459e-001 2.161627e-001
      outer loop
         vertex 5.773503e-003 -1.041620e-001 -3.752990e-003
         vertex 2.886751e-003 -1.088234e-001 -1.963394e-003
         vertex 5.773503e-003 -1.048987e-001 -5.332789e-003
      endloop
   endfacet
   facet normal 8.663849e-001 -4.619152e-001 1.897672e-001
      outer loop
         vertex 2.886751e-003 -1.088234e-001 -1.963394e-003
         vertex 2.886751e-003 -1.095972e-001 -3.622689e-003
         vertex 5.773503e-003 -1.048987e-001 -5.332789e-003
      endloop
   endfacet
   facet normal 8.660545e-001 -4.717496e-001 1.655354e-001
      outer loop
         vertex 5.773503e-003 -1.048987e-001 -5.332789e-003
         vertex 2.886751e-003 -1.095972e-001 -3.622689e-003
         vertex 2.886751e-003 -1.097323e-001 -4.127189e-003
      endloop
   endfacet
   facet normal 8.666406e-001 -4.795934e-001 1.375655e-001
      outer loop
         vertex 5.773503e-003 -1.048987e-001 -5.332789e-003
         vertex 2.886751e-003 -1.097323e-001 -4.127189e-003
         vertex 5.773503e-003 -1.053498e-001 -7.016509e-003
      endloop
   endfacet
   facet normal 8.666191e-001 -4.982869e-001 2.610604e-002
      outer loop
         vertex 2.886751e-003 -1.105018e-001 -8.752991e-003
         vertex 5.773503e-003 -1.055018e-001 -8.752991e-003
         vertex 2.886751e-003 -1.102966e-001 -6.408264e-003
      endloop
   endfacet
   facet normal 8.666918e-001 -4.957948e-001 5.507187e-002
      outer loop
         vertex 2.886751e-003 -1.102966e-001 -6.408264e-003
         vertex 5.773503e-003 -1.055018e-001 -8.752991e-003
         vertex 5.773503e-003 -1.053498e-001 -7.016509e-003
      endloop
   endfacet
   facet normal 8.660327e-001 -4.928856e-001 8.397159e-002
      outer loop
         vertex 2.886751e-003 -1.102966e-001 -6.408264e-003
         vertex 5.773503e-003 -1.053498e-001 -7.016509e-003
         vertex 2.886751e-003 -1.102739e-001 -6.148268e-003
      endloop
   endfacet
   facet normal 8.664949e-001 -4.870360e-001 1.094651e-001
      outer loop
         vertex 2.886751e-003 -1.102739e-001 -6.148268e-003
         vertex 5.773503e-003 -1.053498e-001 -7.016509e-003
         vertex 2.886751e-003 -1.097323e-001 -4.127189e-003
      endloop
   endfacet
   facet normal 0.000000e+000 -5.228807e-002 9.986320e-001
      outer loop
         vertex -2.886751e-003 -9.550177e-002 6.247009e-003
         vertex -2.886751e-003 -9.784829e-002 6.062334e-003
         vertex 2.886751e-003 -9.550177e-002 6.247009e-003
      endloop
   endfacet
   facet normal 0.000000e+000 -1.046079e-001 9.945136e-001
      outer loop
         vertex 2.886751e-003 -9.550177e-002 6.247009e-003
         vertex -2.886751e-003 -9.784829e-002 6.062334e-003
         vertex 2.886751e-003 -9.784650e-002 6.041872e-003
      endloop
   endfacet
   facet normal 0.000000e+000 -1.622093e-001 9.867564e-001
      outer loop
         vertex 2.886751e-003 -9.784650e-002 6.041872e-003
         vertex -2.886751e-003 -9.784829e-002 6.062334e-003
         vertex 2.886751e-003 -9.810650e-002 6.019126e-003
      endloop
   endfacet
   facet normal 0.000000e+000 -2.135606e-001 9.769298e-001
      outer loop
         vertex 2.886751e-003 -9.810650e-002 6.019126e-003
         vertex -2.886751e-003 -9.784829e-002 6.062334e-003
         vertex -2.886751e-003 -1.001370e-001 5.512857e-003
      endloop
   endfacet
   facet normal 0.000000e+000 -2.645077e-001 9.643835e-001
      outer loop
         vertex 2.886751e-003 -9.810650e-002 6.019126e-003
         vertex -2.886751e-003 -1.001370e-001 5.512857e-003
         vertex 2.886751e-003 -1.001276e-001 5.477579e-003
      endloop
   endfacet
   facet normal 0.000000e+000 -3.201017e-001 9.473832e-001
      outer loop
         vertex 2.886751e-003 -1.001276e-001 5.477579e-003
         vertex -2.886751e-003 -1.001370e-001 5.512857e-003
         vertex 2.886751e-003 -1.006321e-001 5.342399e-003
      endloop
   endfacet
   facet normal 0.000000e+000 -3.691792e-001 9.293582e-001
      outer loop
         vertex 2.886751e-003 -1.006321e-001 5.342399e-003
         vertex -2.886751e-003 -1.001370e-001 5.512857e-003
         vertex -2.886751e-003 -1.023116e-001 4.612107e-003
      endloop
   endfacet
   facet normal 0.000000e+000 -4.173929e-001 9.087262e-001
      outer loop
         vertex 2.886751e-003 -1.006321e-001 5.342399e-003
         vertex -2.886751e-003 -1.023116e-001 4.612107e-003
         vertex 2.886751e-003 -1.022914e-001 4.568657e-003
      endloop
   endfacet
   facet normal 0.000000e+000 -4.695030e-001 8.829309e-001
      outer loop
         vertex 2.886751e-003 -1.022914e-001 4.568657e-003
         vertex -2.886751e-003 -1.023116e-001 4.612107e-003
         vertex 2.886751e-003 -1.030018e-001 4.237391e-003
      endloop
   endfacet
   facet normal 0.000000e+000 -5.150229e-001 8.571764e-001
      outer loop
         vertex 2.886751e-003 -1.030018e-001 4.237391e-003
         vertex -2.886751e-003 -1.023116e-001 4.612107e-003
         vertex -2.886751e-003 -1.043186e-001 3.382264e-003
      endloop
   endfacet
   facet normal 0.000000e+000 -5.592224e-001 8.290177e-001
      outer loop
         vertex 2.886751e-003 -1.030018e-001 4.237391e-003
         vertex -2.886751e-003 -1.043186e-001 3.382264e-003
         vertex 2.886751e-003 -1.042871e-001 3.337379e-003
      endloop
   endfacet
   facet normal 0.000000e+000 -6.064647e-001 7.951104e-001
      outer loop
         vertex 2.886751e-003 -1.042871e-001 3.337379e-003
         vertex -2.886751e-003 -1.043186e-001 3.382264e-003
         vertex 2.886751e-003 -1.051436e-001 2.737676e-003
      endloop
   endfacet
   facet normal 0.000000e+000 -6.472289e-001 7.622957e-001
      outer loop
         vertex 2.886751e-003 -1.051436e-001 2.737676e-003
         vertex -2.886751e-003 -1.043186e-001 3.382264e-003
         vertex -2.886751e-003 -1.061084e-001 1.853611e-003
      endloop
   endfacet
   facet normal 0.000000e+000 -6.862476e-001 7.273681e-001
      outer loop
         vertex 2.886751e-003 -1.051436e-001 2.737676e-003
         vertex -2.886751e-003 -1.061084e-001 1.853611e-003
         vertex 2.886751e-003 -1.060680e-001 1.813250e-003
      endloop
   endfacet
   facet normal 0.000000e+000 -7.273681e-001 6.862476e-001
      outer loop
         vertex 2.886751e-003 -1.060680e-001 1.813250e-003
         vertex -2.886751e-003 -1.061084e-001 1.853611e-003
         vertex 2.886751e-003 -1.069924e-001 8.888235e-004
      endloop
   endfacet
   facet normal 0.000000e+000 -7.622958e-001 6.472288e-001
      outer loop
         vertex 2.886751e-003 -1.069924e-001 8.888235e-004
         vertex -2.886751e-003 -1.061084e-001 1.853611e-003
         vertex -2.886751e-003 -1.076370e-001 6.378817e-005
      endloop
   endfacet
   facet normal 0.000000e+000 -7.951104e-001 6.064647e-001
      outer loop
         vertex 2.886751e-003 -1.069924e-001 8.888235e-004
         vertex -2.886751e-003 -1.076370e-001 6.378817e-005
         vertex 2.886751e-003 -1.075921e-001 3.235906e-005
      endloop
   endfacet
   facet normal 0.000000e+000 -8.290177e-001 5.592223e-001
      outer loop
         vertex 2.886751e-003 -1.075921e-001 3.235906e-005
         vertex -2.886751e-003 -1.076370e-001 6.378817e-005
         vertex 2.886751e-003 -1.084922e-001 -1.252991e-003
      endloop
   endfacet
   facet normal 0.000000e+000 -8.571764e-001 5.150229e-001
      outer loop
         vertex 2.886751e-003 -1.084922e-001 -1.252991e-003
         vertex -2.886751e-003 -1.076370e-001 6.378817e-005
         vertex -2.886751e-003 -1.088669e-001 -1.943133e-003
      endloop
   endfacet
   facet normal 0.000000e+000 -8.829309e-001 4.695030e-001
      outer loop
         vertex 2.886751e-003 -1.084922e-001 -1.252991e-003
         vertex -2.886751e-003 -1.088669e-001 -1.943133e-003
         vertex 2.886751e-003 -1.088234e-001 -1.963394e-003
      endloop
   endfacet
   facet normal 0.000000e+000 -9.087262e-001 4.173929e-001
      outer loop
         vertex 2.886751e-003 -1.088234e-001 -1.963394e-003
         vertex -2.886751e-003 -1.088669e-001 -1.943133e-003
         vertex 2.886751e-003 -1.095972e-001 -3.622689e-003
      endloop
   endfacet
   facet normal 0.000000e+000 -9.293582e-001 3.691792e-001
      outer loop
         vertex 2.886751e-003 -1.095972e-001 -3.622689e-003
         vertex -2.886751e-003 -1.088669e-001 -1.943133e-003
         vertex -2.886751e-003 -1.097676e-001 -4.117736e-003
      endloop
   endfacet
   facet normal 0.000000e+000 -9.473832e-001 3.201017e-001
      outer loop
         vertex 2.886751e-003 -1.095972e-001 -3.622689e-003
         vertex -2.886751e-003 -1.097676e-001 -4.117736e-003
         vertex 2.886751e-003 -1.097323e-001 -4.127189e-003
      endloop
   endfacet
   facet normal 0.000000e+000 -9.643835e-001 2.645077e-001
      outer loop
         vertex 2.886751e-003 -1.097323e-001 -4.127189e-003
         vertex -2.886751e-003 -1.097676e-001 -4.117736e-003
         vertex 2.886751e-003 -1.102739e-001 -6.148268e-003
      endloop
   endfacet
   facet normal 0.000000e+000 -9.769298e-001 2.135606e-001
      outer loop
         vertex 2.886751e-003 -1.102739e-001 -6.148268e-003
         vertex -2.886751e-003 -1.097676e-001 -4.117736e-003
         vertex -2.886751e-003 -1.103171e-001 -6.406474e-003
      endloop
   endfacet
   facet normal 0.000000e+000 -9.867564e-001 1.622093e-001
      outer loop
         vertex 2.886751e-003 -1.102739e-001 -6.148268e-003
         vertex -2.886751e-003 -1.103171e-001 -6.406474e-003
         vertex 2.886751e-003 -1.102966e-001 -6.408264e-003
      endloop
   endfacet
   facet normal 0.000000e+000 -9.945136e-001 1.046079e-001
      outer loop
         vertex 2.886751e-003 -1.102966e-001 -6.408264e-003
         vertex -2.886751e-003 -1.103171e-001 -6.406474e-003
         vertex -2.886751e-003 -1.105018e-001 -8.752991e-003
      endloop
   endfacet
   facet normal 0.000000e+000 -9.986304e-001 5.231983e-002
      outer loop
         vertex 2.886751e-003 -1.102966e-001 -6.408264e-003
         vertex -2.886751e-003 -1.105018e-001 -8.752991e-003
         vertex 2.886751e-003 -1.105018e-001 -8.752991e-003
      endloop
   endfacet
   facet normal -8.666183e-001 -4.982890e-001 2.609026e-002
      outer loop
         vertex -2.886751e-003 -1.105018e-001 -8.752991e-003
         vertex -2.886751e-003 -1.103171e-001 -6.406474e-003
         vertex -5.773503e-003 -1.055018e-001 -8.752991e-003
      endloop
   endfacet
   facet normal -8.666183e-001 -4.962356e-001 5.218052e-002
      outer loop
         vertex -5.773503e-003 -1.055018e-001 -8.752991e-003
         vertex -2.886751e-003 -1.103171e-001 -6.406474e-003
         vertex -5.773503e-003 -1.053787e-001 -7.188646e-003
      endloop
   endfacet
   facet normal -8.660327e-001 -4.933704e-001 8.107465e-002
      outer loop
         vertex -5.773503e-003 -1.053787e-001 -7.188646e-003
         vertex -2.886751e-003 -1.103171e-001 -6.406474e-003
         vertex -5.773503e-003 -1.053380e-001 -7.019351e-003
      endloop
   endfacet
   facet normal -8.665600e-001 -4.875618e-001 1.065701e-001
      outer loop
         vertex -5.773503e-003 -1.053380e-001 -7.019351e-003
         vertex -2.886751e-003 -1.103171e-001 -6.406474e-003
         vertex -2.886751e-003 -1.097676e-001 -4.117736e-003
      endloop
   endfacet
   facet normal -8.664945e-001 -4.814163e-001 1.320063e-001
      outer loop
         vertex -5.773503e-003 -1.053380e-001 -7.019351e-003
         vertex -2.886751e-003 -1.097676e-001 -4.117736e-003
         vertex -5.773503e-003 -1.050123e-001 -5.662821e-003
      endloop
   endfacet
   facet normal -8.660545e-001 -4.736555e-001 1.599998e-001
      outer loop
         vertex -5.773503e-003 -1.050123e-001 -5.662821e-003
         vertex -2.886751e-003 -1.097676e-001 -4.117736e-003
         vertex -5.773503e-003 -1.048790e-001 -5.340944e-003
      endloop
   endfacet
   facet normal -8.665162e-001 -4.638940e-001 1.842610e-001
      outer loop
         vertex -5.773503e-003 -1.048790e-001 -5.340944e-003
         vertex -2.886751e-003 -1.097676e-001 -4.117736e-003
         vertex -2.886751e-003 -1.088669e-001 -1.943133e-003
      endloop
   endfacet
   facet normal -8.663848e-001 -4.538112e-001 2.084054e-001
      outer loop
         vertex -5.773503e-003 -1.048790e-001 -5.340944e-003
         vertex -2.886751e-003 -1.088669e-001 -1.943133e-003
         vertex -5.773503e-003 -1.044118e-001 -4.213086e-003
      endloop
   endfacet
   facet normal -8.660911e-001 -4.413792e-001 2.346709e-001
      outer loop
         vertex -5.773503e-003 -1.044118e-001 -4.213086e-003
         vertex -2.886751e-003 -1.088669e-001 -1.943133e-003
         vertex -5.773503e-003 -1.041387e-001 -3.767307e-003
      endloop
   endfacet
   facet normal -8.664868e-001 -4.279087e-001 2.570891e-001
      outer loop
         vertex -5.773503e-003 -1.041387e-001 -3.767307e-003
         vertex -2.886751e-003 -1.088669e-001 -1.943133e-003
         vertex -2.886751e-003 -1.076370e-001 6.378817e-005
      endloop
   endfacet
   facet normal -8.662894e-001 -4.141421e-001 2.793365e-001
      outer loop
         vertex -5.773503e-003 -1.041387e-001 -3.767307e-003
         vertex -2.886751e-003 -1.076370e-001 6.378817e-005
         vertex -5.773503e-003 -1.035919e-001 -2.875138e-003
      endloop
   endfacet
   facet normal -8.661425e-001 -3.974030e-001 3.030972e-001
      outer loop
         vertex -5.773503e-003 -1.035919e-001 -2.875138e-003
         vertex -2.886751e-003 -1.076370e-001 6.378817e-005
         vertex -5.773503e-003 -1.031391e-001 -2.344887e-003
      endloop
   endfacet
   facet normal -8.664721e-001 -3.805604e-001 3.231098e-001
      outer loop
         vertex -5.773503e-003 -1.031391e-001 -2.344887e-003
         vertex -2.886751e-003 -1.076370e-001 6.378817e-005
         vertex -2.886751e-003 -1.061084e-001 1.853611e-003
      endloop
   endfacet
   facet normal -8.662086e-001 -3.634561e-001 3.429027e-001
      outer loop
         vertex -5.773503e-003 -1.031391e-001 -2.344887e-003
         vertex -2.886751e-003 -1.061084e-001 1.853611e-003
         vertex -5.773503e-003 -1.025728e-001 -1.681923e-003
      endloop
   endfacet
   facet normal -8.662087e-001 -3.429027e-001 3.634561e-001
      outer loop
         vertex -5.773503e-003 -1.025728e-001 -1.681923e-003
         vertex -2.886751e-003 -1.061084e-001 1.853611e-003
         vertex -5.773503e-003 -1.019099e-001 -1.115697e-003
      endloop
   endfacet
   facet normal -8.664721e-001 -3.231098e-001 3.805604e-001
      outer loop
         vertex -5.773503e-003 -1.019099e-001 -1.115697e-003
         vertex -2.886751e-003 -1.061084e-001 1.853611e-003
         vertex -2.886751e-003 -1.043186e-001 3.382264e-003
      endloop
   endfacet
   facet normal -8.661426e-001 -3.030972e-001 3.974030e-001
      outer loop
         vertex -5.773503e-003 -1.019099e-001 -1.115697e-003
         vertex -2.886751e-003 -1.043186e-001 3.382264e-003
         vertex -5.773503e-003 -1.013796e-001 -6.628206e-004
      endloop
   endfacet
   facet normal -8.662894e-001 -2.793365e-001 4.141421e-001
      outer loop
         vertex -5.773503e-003 -1.013796e-001 -6.628206e-004
         vertex -2.886751e-003 -1.043186e-001 3.382264e-003
         vertex -5.773503e-003 -1.004875e-001 -1.160989e-004
      endloop
   endfacet
   facet normal -8.664868e-001 -2.570891e-001 4.279087e-001
      outer loop
         vertex -5.773503e-003 -1.004875e-001 -1.160989e-004
         vertex -2.886751e-003 -1.043186e-001 3.382264e-003
         vertex -2.886751e-003 -1.023116e-001 4.612107e-003
      endloop
   endfacet
   facet normal -8.660911e-001 -2.346709e-001 4.413792e-001
      outer loop
         vertex -5.773503e-003 -1.004875e-001 -1.160989e-004
         vertex -2.886751e-003 -1.023116e-001 4.612107e-003
         vertex -5.773503e-003 -1.000417e-001 1.570747e-004
      endloop
   endfacet
   facet normal -8.663848e-001 -2.084054e-001 4.538112e-001
      outer loop
         vertex -5.773503e-003 -1.000417e-001 1.570747e-004
         vertex -2.886751e-003 -1.023116e-001 4.612107e-003
         vertex -5.773503e-003 -9.891383e-002 6.242488e-004
      endloop
   endfacet
   facet normal -8.665162e-001 -1.842611e-001 4.638940e-001
      outer loop
         vertex -5.773503e-003 -9.891383e-002 6.242488e-004
         vertex -2.886751e-003 -1.023116e-001 4.612107e-003
         vertex -2.886751e-003 -1.001370e-001 5.512857e-003
      endloop
   endfacet
   facet normal -8.660545e-001 -1.599998e-001 4.736555e-001
      outer loop
         vertex -5.773503e-003 -9.891383e-002 6.242488e-004
         vertex -2.886751e-003 -1.001370e-001 5.512857e-003
         vertex -5.773503e-003 -9.859195e-002 7.575746e-004
      endloop
   endfacet
   facet normal -8.664945e-001 -1.320063e-001 4.814163e-001
      outer loop
         vertex -5.773503e-003 -9.859195e-002 7.575746e-004
         vertex -2.886751e-003 -1.001370e-001 5.512857e-003
         vertex -5.773503e-003 -9.723542e-002 1.083249e-003
      endloop
   endfacet
   facet normal -8.665600e-001 -1.065701e-001 4.875618e-001
      outer loop
         vertex -5.773503e-003 -9.723542e-002 1.083249e-003
         vertex -2.886751e-003 -1.001370e-001 5.512857e-003
         vertex -2.886751e-003 -9.784829e-002 6.062334e-003
      endloop
   endfacet
   facet normal -8.660327e-001 -8.107465e-002 4.933704e-001
      outer loop
         vertex -5.773503e-003 -9.723542e-002 1.083249e-003
         vertex -2.886751e-003 -9.784829e-002 6.062334e-003
         vertex -5.773503e-003 -9.706611e-002 1.123893e-003
      endloop
   endfacet
   facet normal -8.666183e-001 -5.218052e-002 4.962356e-001
      outer loop
         vertex -5.773503e-003 -9.706611e-002 1.123893e-003
         vertex -2.886751e-003 -9.784829e-002 6.062334e-003
         vertex -2.886751e-003 -9.550177e-002 6.247009e-003
      endloop
   endfacet
   facet normal -8.666183e-001 -2.609026e-002 4.982890e-001
      outer loop
         vertex -5.773503e-003 -9.706611e-002 1.123893e-003
         vertex -2.886751e-003 -9.550177e-002 6.247009e-003
         vertex -5.773503e-003 -9.550177e-002 1.247009e-003
      endloop
   endfacet
   facet normal -8.660254e-001 -5.000000e-001 0.000000e+000
      outer loop
         vertex -5.773503e-003 -1.055018e-001 -2.375299e-002
         vertex -2.886751e-003 -1.105018e-001 -2.375299e-002
         vertex -5.773503e-003 -1.055018e-001 -8.752991e-003
      endloop
   endfacet
   facet normal -8.660254e-001 -5.000000e-001 0.000000e+000
      outer loop
         vertex -5.773503e-003 -1.055018e-001 -8.752991e-003
         vertex -2.886751e-003 -1.105018e-001 -2.375299e-002
         vertex -2.886751e-003 -1.105018e-001 -8.752991e-003
      endloop
   endfacet
   facet normal -8.660254e-001 5.000000e-001 -0.000000e+000
      outer loop
         vertex -2.886751e-003 -1.005018e-001 -2.375299e-002
         vertex -5.773503e-003 -1.055018e-001 -2.375299e-002
         vertex -2.886751e-003 -1.005018e-001 -8.752991e-003
      endloop
   endfacet
   facet normal -8.660254e-001 5.000000e-001 -0.000000e+000
      outer loop
         vertex -2.886751e-003 -1.005018e-001 -8.752991e-003
         vertex -5.773503e-003 -1.055018e-001 -2.375299e-002
         vertex -5.773503e-003 -1.055018e-001 -8.752991e-003
      endloop
   endfacet
   facet normal 0.000000e+000 1.000000e+000 0.000000e+000
      outer loop
         vertex 2.886751e-003 -1.005018e-001 -2.375299e-002
         vertex -2.886751e-003 -1.005018e-001 -2.375299e-002
         vertex 2.886751e-003 -1.005018e-001 -8.752991e-003
      endloop
   endfacet
   facet normal 0.000000e+000 1.000000e+000 0.000000e+000
      outer loop
         vertex 2.886751e-003 -1.005018e-001 -8.752991e-003
         vertex -2.886751e-003 -1.005018e-001 -2.375299e-002
         vertex -2.886751e-003 -1.005018e-001 -8.752991e-003
      endloop
   endfacet
   facet normal 8.660254e-001 5.000000e-001 0.000000e+000
      outer loop
         vertex 5.773503e-003 -1.055018e-001 -2.375299e-002
         vertex 2.886751e-003 -1.005018e-001 -2.375299e-002
         vertex 5.773503e-003 -1.055018e-001 -8.752991e-003
      endloop
   endfacet
   facet normal 8.660254e-001 5.000000e-001 0.000000e+000
      outer loop
         vertex 5.773503e-003 -1.055018e-001 -8.752991e-003
         vertex 2.886751e-003 -1.005018e-001 -2.375299e-002
         vertex 2.886751e-003 -1.005018e-001 -8.752991e-003
      endloop
   endfacet
   facet normal 8.660254e-001 -5.000000e-001 0.000000e+000
      outer loop
         vertex 2.886751e-003 -1.105018e-001 -2.375299e-002
         vertex 5.773503e-003 -1.055018e-001 -2.375299e-002
         vertex 2.886751e-003 -1.105018e-001 -8.752991e-003
      endloop
   endfacet
   facet normal 8.660254e-001 -5.000000e-001 0.000000e+000
      outer loop
         vertex 2.886751e-003 -1.105018e-001 -8.752991e-003
         vertex 5.773503e-003 -1.055018e-001 -2.375299e-002
         vertex 5.773503e-003 -1.055018e-001 -8.752991e-003
      endloop
   endfacet
   facet normal 0.000000e+000 -1.000000e+000 0.000000e+000
      outer loop
         vertex -2.886751e-003 -1.105018e-001 -2.375299e-002
         vertex 2.886751e-003 -1.105018e-001 -2.375299e-002
         vertex -2.886751e-003 -1.105018e-001 -8.752991e-003
      endloop
   endfacet
   facet normal 0.000000e+000 -1.000000e+000 0.000000e+000
      outer loop
         vertex -2.886751e-003 -1.105018e-001 -8.752991e-003
         vertex 2.886751e-003 -1.105018e-001 -2.375299e-002
         vertex 2.886751e-003 -1.105018e-001 -8.752991e-003
      endloop
   endfacet
   facet normal 0.000000e+000 0.000000e+000 -1.000000e+000
      outer loop
         vertex -2.886751e-003 -1.005018e-001 -2.375299e-002
         vertex 2.886751e-003 -1.005018e-001 -2.375299e-002
         vertex -5.773503e-003 -1.055018e-001 -2.375299e-002
      endloop
   endfacet
   facet normal 0.000000e+000 0.000000e+000 -1.000000e+000
      outer loop
         vertex -5.773503e-003 -1.055018e-001 -2.375299e-002
         vertex 2.886751e-003 -1.005018e-001 -2.375299e-002
         vertex 5.773503e-003 -1.055018e-001 -2.375299e-002
      endloop
   endfacet
   facet normal 0.000000e+000 0.000000e+000 -1.000000e+000
      outer loop
         vertex -5.773503e-003 -1.055018e-001 -2.375299e-002
         vertex 5.773503e-003 -1.055018e-001 -2.375299e-002
         vertex -2.886751e-003 -1.105018e-001 -2.375299e-002
      endloop
   endfacet
   facet normal 0.000000e+000 0.000000e+000 -1.000000e+000
      outer loop
         vertex -2.886751e-003 -1.105018e-001 -2.375299e-002
         vertex 5.773503e-003 -1.055018e-001 -2.375299e-002
         vertex 2.886751e-003 -1.105018e-001 -2.375299e-002
      endloop
   endfacet
endsolid