solid t
   facet normal -6.419767e-033 -0.000000e+000 -1.000000e+000
      outer loop
         vertex 3.750000e-002 -1.500000e-002 -1.500000e-002
         vertex 7.500000e-003 -1.500000e-002 -1.500000e-002
         vertex 3.750000e-002 1.500000e-002 -1.500000e-002
      endloop
   endfacet
   facet normal -6.419767e-033 -0.000000e+000 -1.000000e+000
      outer loop
         vertex 3.750000e-002 1.500000e-002 -1.500000e-002
         vertex 7.500000e-003 -1.500000e-002 -1.500000e-002
         vertex 7.500000e-003 1.500000e-002 -1.500000e-002
      endloop
   endfacet
   facet normal 1.000000e+000 -0.000000e+000 -1.156482e-016
      outer loop
         vertex 3.750000e-002 -1.500000e-002 1.500000e-002
         vertex 3.750000e-002 -1.500000e-002 -1.500000e-002
         vertex 3.750000e-002 1.500000e-002 1.500000e-002
      endloop
   endfacet
   facet normal 1.000000e+000 -0.000000e+000 -1.156482e-016
      outer loop
         vertex 3.750000e-002 1.500000e-002 1.500000e-002
         vertex 3.750000e-002 -1.500000e-002 -1.500000e-002
         vertex 3.750000e-002 1.500000e-002 -1.500000e-002
      endloop
   endfacet
   facet normal -1.156482e-016 0.000000e+000 1.000000e+000
      outer loop
         vertex 7.500000e-003 -1.500000e-002 1.500000e-002
         vertex 3.750000e-002 -1.500000e-002 1.500000e-002
         vertex 7.500000e-003 1.500000e-002 1.500000e-002
      endloop
   endfacet
   facet normal -1.156482e-016 0.000000e+000 1.000000e+000
      outer loop
         vertex 7.500000e-003 1.500000e-002 1.500000e-002
         vertex 3.750000e-002 -1.500000e-002 1.500000e-002
         vertex 3.750000e-002 1.500000e-002 1.500000e-002
      endloop
   endfacet
   facet normal 1.000000e+000 0.000000e+000 -4.897888e-040
      outer loop
         vertex 7.500000e-003 -1.500000e-002 4.500000e-002
         vertex 7.500000e-003 -1.500000e-002 1.500000e-002
         vertex 7.500000e-003 1.500000e-002 4.500000e-002
      endloop
   endfacet
   facet normal 1.000000e+000 0.000000e+000 -4.897888e-040
      outer loop
         vertex 7.500000e-003 1.500000e-002 4.500000e-002
         vertex 7.500000e-003 -1.500000e-002 1.500000e-002
         vertex 7.500000e-003 1.500000e-002 1.500000e-002
      endloop
   endfacet
   facet normal -4.625929e-016 0.000000e+000 1.000000e+000
      outer loop
         vertex -2.250000e-002 -1.500000e-002 4.500000e-002
         vertex 7.500000e-003 -1.500000e-002 4.500000e-002
         vertex -2.250000e-002 1.500000e-002 4.500000e-002
      endloop
   endfacet
   facet normal -4.625929e-016 0.000000e+000 1.000000e+000
      outer loop
         vertex -2.250000e-002 1.500000e-002 4.500000e-002
         vertex 7.500000e-003 -1.500000e-002 4.500000e-002
         vertex 7.500000e-003 1.500000e-002 4.500000e-002
      endloop
   endfacet
   facet normal -1.000000e+000 0.000000e+000 -7.709882e-017
      outer loop
         vertex -2.250000e-002 -1.500000e-002 -4.500000e-002
         vertex -2.250000e-002 -1.500000e-002 4.500000e-002
         vertex -2.250000e-002 1.500000e-002 -4.500000e-002
      endloop
   endfacet
   facet normal -1.000000e+000 0.000000e+000 -7.709882e-017
      outer loop
         vertex -2.250000e-002 1.500000e-002 -4.500000e-002
         vertex -2.250000e-002 -1.500000e-002 4.500000e-002
         vertex -2.250000e-002 1.500000e-002 4.500000e-002
      endloop
   endfacet
   facet normal -1.283953e-032 0.000000e+000 -1.000000e+000
      outer loop
         vertex 7.500000e-003 -1.500000e-002 -4.500000e-002
         vertex -2.250000e-002 -1.500000e-002 -4.500000e-002
         vertex 7.500000e-003 1.500000e-002 -4.500000e-002
      endloop
   endfacet
   facet normal -1.283953e-032 0.000000e+000 -1.000000e+000
      outer loop
         vertex 7.500000e-003 1.500000e-002 -4.500000e-002
         vertex -2.250000e-002 -1.500000e-002 -4.500000e-002
         vertex -2.250000e-002 1.500000e-002 -4.500000e-002
      endloop
   endfacet
   facet normal 1.000000e+000 0.000000e+000 -1.283953e-032
      outer loop
         vertex 7.500000e-003 -1.500000e-002 -1.500000e-002
         vertex 7.500000e-003 -1.500000e-002 -4.500000e-002
         vertex 7.500000e-003 1.500000e-002 -1.500000e-002
      endloop
   endfacet
   facet normal 1.000000e+000 0.000000e+000 -1.283953e-032
      outer loop
         vertex 7.500000e-003 1.500000e-002 -1.500000e-002
         vertex 7.500000e-003 -1.500000e-002 -4.500000e-002
         vertex 7.500000e-003 1.500000e-002 -4.500000e-002
      endloop
   endfacet
   facet normal 0.000000e+000 -1.000000e+000 0.000000e+000
      outer loop
         vertex 7.500000e-003 -1.500000e-002 1.500000e-002
         vertex 7.500000e-003 -1.500000e-002 4.500000e-002
         vertex -2.250000e-002 -1.500000e-002 4.500000e-002
      endloop
   endfacet
   facet normal 0.000000e+000 -1.000000e+000 0.000000e+000
      outer loop
         vertex -2.250000e-002 -1.500000e-002 -4.500000e-002
         vertex 7.500000e-003 -1.500000e-002 -4.500000e-002
         vertex 7.500000e-003 -1.500000e-002 -1.500000e-002
      endloop
   endfacet
   facet normal 0.000000e+000 -1.000000e+000 0.000000e+000
      outer loop
         vertex 3.750000e-002 -1.500000e-002 -1.500000e-002
         vertex 3.750000e-002 -1.500000e-002 1.500000e-002
         vertex 7.500000e-003 -1.500000e-002 -1.500000e-002
      endloop
   endfacet
   facet normal 0.000000e+000 -1.000000e+000 0.000000e+000
      outer loop
         vertex 7.500000e-003 -1.500000e-002 -1.500000e-002
         vertex 3.750000e-002 -1.500000e-002 1.500000e-002
         vertex 7.500000e-003 -1.500000e-002 1.500000e-002
      endloop
   endfacet
   facet normal 0.000000e+000 -1.000000e+000 0.000000e+000
      outer loop
         vertex 7.500000e-003 -1.500000e-002 -1.500000e-002
         vertex 7.500000e-003 -1.500000e-002 1.500000e-002
         vertex -2.250000e-002 -1.500000e-002 -4.500000e-002
      endloop
   endfacet
   facet normal 0.000000e+000 -1.000000e+000 0.000000e+000
      outer loop
         vertex -2.250000e-002 -1.500000e-002 -4.500000e-002
         vertex 7.500000e-003 -1.500000e-002 1.500000e-002
         vertex -2.250000e-002 -1.500000e-002 4.500000e-002
      endloop
   endfacet
   facet normal 0.000000e+000 1.000000e+000 0.000000e+000
      outer loop
         vertex 7.500000e-003 1.500000e-002 -1.500000e-002
         vertex 7.500000e-003 1.500000e-002 -4.500000e-002
         vertex -2.250000e-002 1.500000e-002 -4.500000e-002
      endloop
   endfacet
   facet normal 0.000000e+000 1.000000e+000 0.000000e+000
      outer loop
         vertex -2.250000e-002 1.500000e-002 4.500000e-002
         vertex 7.500000e-003 1.500000e-002 4.500000e-002
         vertex 7.500000e-003 1.500000e-002 1.500000e-002
      endloop
   endfacet
   facet normal 0.000000e+000 1.000000e+000 0.000000e+000
      outer loop
         vertex 3.750000e-002 1.500000e-002 1.500000e-002
         vertex 3.750000e-002 1.500000e-002 -1.500000e-002
         vertex 7.500000e-003 1.500000e-002 1.500000e-002
      endloop
   endfacet
   facet normal 0.000000e+000 1.000000e+000 0.000000e+000
      outer loop
         vertex 7.500000e-003 1.500000e-002 1.500000e-002
         vertex 3.750000e-002 1.500000e-002 -1.500000e-002
         vertex 7.500000e-003 1.500000e-002 -1.500000e-002
      endloop
   endfacet
   facet normal 0.000000e+000 1.000000e+000 0.000000e+000
      outer loop
         vertex 7.500000e-003 1.500000e-002 1.500000e-002
         vertex 7.500000e-003 1.500000e-002 -1.500000e-002
         vertex -2.250000e-002 1.500000e-002 4.500000e-002
      endloop
   endfacet
   facet normal 0.000000e+000 1.000000e+000 0.000000e+000
      outer loop
         vertex -2.250000e-002 1.500000e-002 4.500000e-002
         vertex 7.500000e-003 1.500000e-002 -1.500000e-002
         vertex -2.250000e-002 1.500000e-002 -4.500000e-002
      endloop
   endfacet
endsolid