solid tool
   facet normal 0.000000e+000 0.000000e+000 -1.000000e+000
      outer loop
         vertex 4.741521e-010 2.121320e-002 -3.150000e-002
         vertex -7.500000e-003 7.500001e-003 -3.150000e-002
         vertex -2.121320e-002 -3.469447e-018 -3.150000e-002
      endloop
   endfacet
   facet normal 0.000000e+000 0.000000e+000 -1.000000e+000
      outer loop
         vertex -2.121320e-002 -3.469447e-018 -3.150000e-002
         vertex -7.500000e-003 7.500001e-003 -3.150000e-002
         vertex -7.500000e-003 -7.500001e-003 -3.150000e-002
      endloop
   endfacet
   facet normal 0.000000e+000 0.000000e+000 -1.000000e+000
      outer loop
         vertex -2.121320e-002 -3.469447e-018 -3.150000e-002
         vertex -7.500000e-003 -7.500001e-003 -3.150000e-002
         vertex 4.741521e-010 -2.121320e-002 -3.150000e-002
      endloop
   endfacet
   facet normal 0.000000e+000 0.000000e+000 -1.000000e+000
      outer loop
         vertex 4.741521e-010 -2.121320e-002 -3.150000e-002
         vertex -7.500000e-003 -7.500001e-003 -3.150000e-002
         vertex 7.500000e-003 -7.500000e-003 -3.150000e-002
      endloop
   endfacet
   facet normal 0.000000e+000 0.000000e+000 -1.000000e+000
      outer loop
         vertex 4.741521e-010 -2.121320e-002 -3.150000e-002
         vertex 7.500000e-003 -7.500000e-003 -3.150000e-002
         vertex 2.121320e-002 -3.469447e-018 -3.150000e-002
      endloop
   endfacet
   facet normal 0.000000e+000 0.000000e+000 -1.000000e+000
      outer loop
         vertex 2.121320e-002 -3.469447e-018 -3.150000e-002
         vertex 7.500000e-003 -7.500000e-003 -3.150000e-002
         vertex 7.500000e-003 7.500000e-003 -3.150000e-002
      endloop
   endfacet
   facet normal 0.000000e+000 0.000000e+000 -1.000000e+000
      outer loop
         vertex 2.121320e-002 -3.469447e-018 -3.150000e-002
         vertex 7.500000e-003 7.500000e-003 -3.150000e-002
         vertex 4.741521e-010 2.121320e-002 -3.150000e-002
      endloop
   endfacet
   facet normal 0.000000e+000 0.000000e+000 -1.000000e+000
      outer loop
         vertex 4.741521e-010 2.121320e-002 -3.150000e-002
         vertex 7.500000e-003 7.500000e-003 -3.150000e-002
         vertex -7.500000e-003 7.500001e-003 -3.150000e-002
      endloop
   endfacet
   facet normal 7.071068e-001 -7.071068e-001 -0.000000e+000
      outer loop
         vertex 4.741521e-010 -2.121320e-002 -3.150000e-002
         vertex 2.121320e-002 -3.469447e-018 -3.150000e-002
         vertex 4.741521e-010 -2.121320e-002 7.850000e-002
      endloop
   endfacet
   facet normal 7.071068e-001 -7.071068e-001 -0.000000e+000
      outer loop
         vertex 4.741521e-010 -2.121320e-002 7.850000e-002
         vertex 2.121320e-002 -3.469447e-018 -3.150000e-002
         vertex 2.121320e-002 -3.469447e-018 7.850000e-002
      endloop
   endfacet
   facet normal -7.071068e-001 -7.071068e-001 0.000000e+000
      outer loop
         vertex -2.121320e-002 -3.469447e-018 -3.150000e-002
         vertex 4.741521e-010 -2.121320e-002 -3.150000e-002
         vertex -2.121320e-002 -3.469447e-018 4.850000e-002
      endloop
   endfacet
   facet normal -7.071068e-001 -7.071068e-001 0.000000e+000
      outer loop
         vertex -2.121320e-002 -3.469447e-018 4.850000e-002
         vertex 4.741521e-010 -2.121320e-002 -3.150000e-002
         vertex 4.741521e-010 -2.121320e-002 7.850000e-002
      endloop
   endfacet
   facet normal -7.071068e-001 -7.071068e-001 0.000000e+000
      outer loop
         vertex -2.121320e-002 -3.469447e-018 4.850000e-002
         vertex 4.741521e-010 -2.121320e-002 7.850000e-002
         vertex -4.242640e-002 2.121320e-002 4.850000e-002
      endloop
   endfacet
   facet normal -7.071068e-001 -7.071068e-001 0.000000e+000
      outer loop
         vertex -4.242640e-002 2.121320e-002 4.850000e-002
         vertex 4.741521e-010 -2.121320e-002 7.850000e-002
         vertex -4.242640e-002 2.121320e-002 7.850000e-002
      endloop
   endfacet
   facet normal -7.071068e-001 7.071068e-001 0.000000e+000
      outer loop
         vertex -2.121320e-002 4.242641e-002 4.850000e-002
         vertex -4.242640e-002 2.121320e-002 4.850000e-002
         vertex -2.121320e-002 4.242641e-002 7.850000e-002
      endloop
   endfacet
   facet normal -7.071068e-001 7.071068e-001 0.000000e+000
      outer loop
         vertex -2.121320e-002 4.242641e-002 7.850000e-002
         vertex -4.242640e-002 2.121320e-002 4.850000e-002
         vertex -4.242640e-002 2.121320e-002 7.850000e-002
      endloop
   endfacet
   facet normal 7.071068e-001 7.071068e-001 0.000000e+000
      outer loop
         vertex -2.121320e-002 4.242641e-002 4.850000e-002
         vertex -2.121320e-002 4.242641e-002 7.850000e-002
         vertex 4.741521e-010 2.121320e-002 4.850000e-002
      endloop
   endfacet
   facet normal 7.071068e-001 7.071068e-001 0.000000e+000
      outer loop
         vertex 4.741521e-010 2.121320e-002 4.850000e-002
         vertex -2.121320e-002 4.242641e-002 7.850000e-002
         vertex 2.121320e-002 -3.469447e-018 7.850000e-002
      endloop
   endfacet
   facet normal 7.071068e-001 7.071068e-001 0.000000e+000
      outer loop
         vertex 4.741521e-010 2.121320e-002 4.850000e-002
         vertex 2.121320e-002 -3.469447e-018 7.850000e-002
         vertex 4.741521e-010 2.121320e-002 -3.150000e-002
      endloop
   endfacet
   facet normal 7.071068e-001 7.071068e-001 0.000000e+000
      outer loop
         vertex 4.741521e-010 2.121320e-002 -3.150000e-002
         vertex 2.121320e-002 -3.469447e-018 7.850000e-002
         vertex 2.121320e-002 -3.469447e-018 -3.150000e-002
      endloop
   endfacet
   facet normal 0.000000e+000 0.000000e+000 -1.000000e+000
      outer loop
         vertex -4.242640e-002 2.121320e-002 4.850000e-002
         vertex -2.121320e-002 4.242641e-002 4.850000e-002
         vertex -2.121320e-002 -3.469447e-018 4.850000e-002
      endloop
   endfacet
   facet normal 0.000000e+000 0.000000e+000 -1.000000e+000
      outer loop
         vertex -2.121320e-002 -3.469447e-018 4.850000e-002
         vertex -2.121320e-002 4.242641e-002 4.850000e-002
         vertex 4.741521e-010 2.121320e-002 4.850000e-002
      endloop
   endfacet
   facet normal -0.000000e+000 0.000000e+000 1.000000e+000
      outer loop
         vertex -2.121320e-002 4.242641e-002 7.850000e-002
         vertex -4.242640e-002 2.121320e-002 7.850000e-002
         vertex 2.121320e-002 -3.469447e-018 7.850000e-002
      endloop
   endfacet
   facet normal -0.000000e+000 0.000000e+000 1.000000e+000
      outer loop
         vertex 2.121320e-002 -3.469447e-018 7.850000e-002
         vertex -4.242640e-002 2.121320e-002 7.850000e-002
         vertex 4.741521e-010 -2.121320e-002 7.850000e-002
      endloop
   endfacet
   facet normal -7.071068e-001 7.071068e-001 0.000000e+000
      outer loop
         vertex 4.741521e-010 2.121320e-002 -3.150000e-002
         vertex -2.121320e-002 -3.469447e-018 -3.150000e-002
         vertex 4.741521e-010 2.121320e-002 4.850000e-002
      endloop
   endfacet
   facet normal -7.071068e-001 7.071068e-001 0.000000e+000
      outer loop
         vertex 4.741521e-010 2.121320e-002 4.850000e-002
         vertex -2.121320e-002 -3.469447e-018 -3.150000e-002
         vertex -2.121320e-002 -3.469447e-018 4.850000e-002
      endloop
   endfacet
   facet normal 0.000000e+000 -1.000000e+000 -0.000000e+000
      outer loop
         vertex 7.500000e-003 -7.500000e-003 -3.850000e-002
         vertex 7.500000e-003 -7.500000e-003 -3.150000e-002
         vertex -7.500000e-003 -7.500001e-003 -3.850000e-002
      endloop
   endfacet
   facet normal 0.000000e+000 -1.000000e+000 -0.000000e+000
      outer loop
         vertex -7.500000e-003 -7.500001e-003 -3.850000e-002
         vertex 7.500000e-003 -7.500000e-003 -3.150000e-002
         vertex -7.500000e-003 -7.500001e-003 -3.150000e-002
      endloop
   endfacet
   facet normal -1.000000e+000 0.000000e+000 0.000000e+000
      outer loop
         vertex -7.500000e-003 -7.500001e-003 -3.850000e-002
         vertex -7.500000e-003 -7.500001e-003 -3.150000e-002
         vertex -7.500000e-003 7.500001e-003 -3.850000e-002
      endloop
   endfacet
   facet normal -1.000000e+000 0.000000e+000 0.000000e+000
      outer loop
         vertex -7.500000e-003 7.500001e-003 -3.850000e-002
         vertex -7.500000e-003 -7.500001e-003 -3.150000e-002
         vertex -7.500000e-003 7.500001e-003 -3.150000e-002
      endloop
   endfacet
   facet normal 0.000000e+000 1.000000e+000 0.000000e+000
      outer loop
         vertex -7.500000e-003 7.500001e-003 -3.850000e-002
         vertex -7.500000e-003 7.500001e-003 -3.150000e-002
         vertex 7.500000e-003 7.500000e-003 -3.850000e-002
      endloop
   endfacet
   facet normal 0.000000e+000 1.000000e+000 0.000000e+000
      outer loop
         vertex 7.500000e-003 7.500000e-003 -3.850000e-002
         vertex -7.500000e-003 7.500001e-003 -3.150000e-002
         vertex 7.500000e-003 7.500000e-003 -3.150000e-002
      endloop
   endfacet
   facet normal 1.000000e+000 0.000000e+000 0.000000e+000
      outer loop
         vertex 7.500000e-003 7.500000e-003 -3.850000e-002
         vertex 7.500000e-003 7.500000e-003 -3.150000e-002
         vertex 7.500000e-003 -7.500000e-003 -3.850000e-002
      endloop
   endfacet
   facet normal 1.000000e+000 0.000000e+000 0.000000e+000
      outer loop
         vertex 7.500000e-003 -7.500000e-003 -3.850000e-002
         vertex 7.500000e-003 7.500000e-003 -3.150000e-002
         vertex 7.500000e-003 -7.500000e-003 -3.150000e-002
      endloop
   endfacet
   facet normal 0.000000e+000 0.000000e+000 -1.000000e+000
      outer loop
         vertex 4.469210e-004 -4.469206e-004 -7.850000e-002
         vertex -4.469201e-004 -4.469206e-004 -7.850000e-002
         vertex 4.469210e-004 4.469206e-004 -7.850000e-002
      endloop
   endfacet
   facet normal 0.000000e+000 0.000000e+000 -1.000000e+000
      outer loop
         vertex 4.469210e-004 4.469206e-004 -7.850000e-002
         vertex -4.469201e-004 -4.469206e-004 -7.850000e-002
         vertex -4.469201e-004 4.469206e-004 -7.850000e-002
      endloop
   endfacet
   facet normal -9.848077e-001 0.000000e+000 -1.736482e-001
      outer loop
         vertex -7.500000e-003 7.500001e-003 -3.850000e-002
         vertex -4.469201e-004 4.469206e-004 -7.850000e-002
         vertex -7.500000e-003 -7.500001e-003 -3.850000e-002
      endloop
   endfacet
   facet normal -9.848077e-001 0.000000e+000 -1.736482e-001
      outer loop
         vertex -7.500000e-003 -7.500001e-003 -3.850000e-002
         vertex -4.469201e-004 4.469206e-004 -7.850000e-002
         vertex -4.469201e-004 -4.469206e-004 -7.850000e-002
      endloop
   endfacet
   facet normal 0.000000e+000 9.848077e-001 -1.736482e-001
      outer loop
         vertex 7.500000e-003 7.500000e-003 -3.850000e-002
         vertex 4.469210e-004 4.469206e-004 -7.850000e-002
         vertex -7.500000e-003 7.500001e-003 -3.850000e-002
      endloop
   endfacet
   facet normal 0.000000e+000 9.848077e-001 -1.736482e-001
      outer loop
         vertex -7.500000e-003 7.500001e-003 -3.850000e-002
         vertex 4.469210e-004 4.469206e-004 -7.850000e-002
         vertex -4.469201e-004 4.469206e-004 -7.850000e-002
      endloop
   endfacet
   facet normal 0.000000e+000 -9.848077e-001 -1.736482e-001
      outer loop
         vertex 4.469210e-004 -4.469206e-004 -7.850000e-002
         vertex 7.500000e-003 -7.500000e-003 -3.850000e-002
         vertex -4.469201e-004 -4.469206e-004 -7.850000e-002
      endloop
   endfacet
   facet normal 0.000000e+000 -9.848077e-001 -1.736482e-001
      outer loop
         vertex -4.469201e-004 -4.469206e-004 -7.850000e-002
         vertex 7.500000e-003 -7.500000e-003 -3.850000e-002
         vertex -7.500000e-003 -7.500001e-003 -3.850000e-002
      endloop
   endfacet
   facet normal 9.848077e-001 0.000000e+000 -1.736482e-001
      outer loop
         vertex 7.500000e-003 -7.500000e-003 -3.850000e-002
         vertex 4.469210e-004 -4.469206e-004 -7.850000e-002
         vertex 7.500000e-003 7.500000e-003 -3.850000e-002
      endloop
   endfacet
   facet normal 9.848077e-001 0.000000e+000 -1.736482e-001
      outer loop
         vertex 7.500000e-003 7.500000e-003 -3.850000e-002
         vertex 4.469210e-004 -4.469206e-004 -7.850000e-002
         vertex 4.469210e-004 4.469206e-004 -7.850000e-002
      endloop
   endfacet
endsolid