solid z3d
   facet normal 0.000000e+000 -1.000000e+000 0.000000e+000
      outer loop
         vertex -3.000000e-002 -7.499999e-003 -3.750000e-002
         vertex -1.470543e-018 -7.499999e-003 -3.750000e-002
         vertex -3.000000e-002 -7.499999e-003 2.250000e-002
      endloop
   endfacet
   facet normal 0.000000e+000 -1.000000e+000 0.000000e+000
      outer loop
         vertex -3.000000e-002 -7.499999e-003 2.250000e-002
         vertex -1.470543e-018 -7.499999e-003 -3.750000e-002
         vertex -1.470543e-018 -7.499999e-003 -7.500000e-003
      endloop
   endfacet
   facet normal 0.000000e+000 -1.000000e+000 0.000000e+000
      outer loop
         vertex -3.000000e-002 -7.499999e-003 2.250000e-002
         vertex -1.470543e-018 -7.499999e-003 -7.500000e-003
         vertex -1.470543e-018 -7.499999e-003 2.250000e-002
      endloop
   endfacet
   facet normal 1.000000e+000 0.000000e+000 0.000000e+000
      outer loop
         vertex -1.470543e-018 -7.499999e-003 -7.500000e-003
         vertex -1.470543e-018 -7.499999e-003 -3.750000e-002
         vertex -1.470543e-018 2.250000e-002 -7.500000e-003
      endloop
   endfacet
   facet normal 1.000000e+000 0.000000e+000 0.000000e+000
      outer loop
         vertex -1.470543e-018 2.250000e-002 -7.500000e-003
         vertex -1.470543e-018 -7.499999e-003 -3.750000e-002
         vertex -1.470543e-018 2.250000e-002 -3.750000e-002
      endloop
   endfacet
   facet normal 0.000000e+000 0.000000e+000 -1.000000e+000
      outer loop
         vertex 3.000000e-002 -3.750000e-002 -7.500000e-003
         vertex -1.470543e-018 -3.750000e-002 -7.500000e-003
         vertex 3.000000e-002 2.250000e-002 -7.500000e-003
      endloop
   endfacet
   facet normal 0.000000e+000 0.000000e+000 -1.000000e+000
      outer loop
         vertex 3.000000e-002 2.250000e-002 -7.500000e-003
         vertex -1.470543e-018 -3.750000e-002 -7.500000e-003
         vertex -1.470543e-018 -7.499999e-003 -7.500000e-003
      endloop
   endfacet
   facet normal 0.000000e+000 0.000000e+000 -1.000000e+000
      outer loop
         vertex 3.000000e-002 2.250000e-002 -7.500000e-003
         vertex -1.470543e-018 -7.499999e-003 -7.500000e-003
         vertex -1.470543e-018 2.250000e-002 -7.500000e-003
      endloop
   endfacet
   facet normal 1.000000e+000 0.000000e+000 0.000000e+000
      outer loop
         vertex 3.000000e-002 -3.750000e-002 2.250000e-002
         vertex 3.000000e-002 -3.750000e-002 -7.500000e-003
         vertex 3.000000e-002 2.250000e-002 2.250000e-002
      endloop
   endfacet
   facet normal 1.000000e+000 0.000000e+000 0.000000e+000
      outer loop
         vertex 3.000000e-002 2.250000e-002 2.250000e-002
         vertex 3.000000e-002 -3.750000e-002 -7.500000e-003
         vertex 3.000000e-002 2.250000e-002 -7.500000e-003
      endloop
   endfacet
   facet normal -1.156482e-016 -0.000000e+000 1.000000e+000
      outer loop
         vertex -1.470543e-018 -3.750000e-002 2.250000e-002
         vertex 3.000000e-002 -3.750000e-002 2.250000e-002
         vertex -1.470543e-018 -7.499999e-003 2.250000e-002
      endloop
   endfacet
   facet normal -1.156482e-016 -0.000000e+000 1.000000e+000
      outer loop
         vertex -1.470543e-018 -7.499999e-003 2.250000e-002
         vertex 3.000000e-002 -3.750000e-002 2.250000e-002
         vertex 3.000000e-002 2.250000e-002 2.250000e-002
      endloop
   endfacet
   facet normal -1.156482e-016 -0.000000e+000 1.000000e+000
      outer loop
         vertex -1.470543e-018 -7.499999e-003 2.250000e-002
         vertex 3.000000e-002 2.250000e-002 2.250000e-002
         vertex -3.000000e-002 -7.499999e-003 2.250000e-002
      endloop
   endfacet
   facet normal -1.156482e-016 -0.000000e+000 1.000000e+000
      outer loop
         vertex -3.000000e-002 -7.499999e-003 2.250000e-002
         vertex 3.000000e-002 2.250000e-002 2.250000e-002
         vertex -3.000000e-002 2.250000e-002 2.250000e-002
      endloop
   endfacet
   facet normal -1.000000e+000 0.000000e+000 -1.156482e-016
      outer loop
         vertex -3.000000e-002 -7.499999e-003 -3.750000e-002
         vertex -3.000000e-002 -7.499999e-003 2.250000e-002
         vertex -3.000000e-002 2.250000e-002 -3.750000e-002
      endloop
   endfacet
   facet normal -1.000000e+000 0.000000e+000 -1.156482e-016
      outer loop
         vertex -3.000000e-002 2.250000e-002 -3.750000e-002
         vertex -3.000000e-002 -7.499999e-003 2.250000e-002
         vertex -3.000000e-002 2.250000e-002 2.250000e-002
      endloop
   endfacet
   facet normal 0.000000e+000 0.000000e+000 -1.000000e+000
      outer loop
         vertex -1.470543e-018 -7.499999e-003 -3.750000e-002
         vertex -3.000000e-002 -7.499999e-003 -3.750000e-002
         vertex -1.470543e-018 2.250000e-002 -3.750000e-002
      endloop
   endfacet
   facet normal 0.000000e+000 0.000000e+000 -1.000000e+000
      outer loop
         vertex -1.470543e-018 2.250000e-002 -3.750000e-002
         vertex -3.000000e-002 -7.499999e-003 -3.750000e-002
         vertex -3.000000e-002 2.250000e-002 -3.750000e-002
      endloop
   endfacet
   facet normal 0.000000e+000 1.000000e+000 0.000000e+000
      outer loop
         vertex -1.470543e-018 2.250000e-002 -3.750000e-002
         vertex -3.000000e-002 2.250000e-002 -3.750000e-002
         vertex -1.470543e-018 2.250000e-002 -7.500000e-003
      endloop
   endfacet
   facet normal 0.000000e+000 1.000000e+000 0.000000e+000
      outer loop
         vertex -1.470543e-018 2.250000e-002 -7.500000e-003
         vertex -3.000000e-002 2.250000e-002 -3.750000e-002
         vertex -3.000000e-002 2.250000e-002 2.250000e-002
      endloop
   endfacet
   facet normal 0.000000e+000 1.000000e+000 0.000000e+000
      outer loop
         vertex -1.470543e-018 2.250000e-002 -7.500000e-003
         vertex -3.000000e-002 2.250000e-002 2.250000e-002
         vertex 3.000000e-002 2.250000e-002 -7.500000e-003
      endloop
   endfacet
   facet normal 0.000000e+000 1.000000e+000 0.000000e+000
      outer loop
         vertex 3.000000e-002 2.250000e-002 -7.500000e-003
         vertex -3.000000e-002 2.250000e-002 2.250000e-002
         vertex 3.000000e-002 2.250000e-002 2.250000e-002
      endloop
   endfacet
   facet normal -1.000000e+000 0.000000e+000 0.000000e+000
      outer loop
         vertex -1.470543e-018 -3.750000e-002 -7.500000e-003
         vertex -1.470543e-018 -3.750000e-002 2.250000e-002
         vertex -1.470543e-018 -7.499999e-003 -7.500000e-003
      endloop
   endfacet
   facet normal -1.000000e+000 0.000000e+000 0.000000e+000
      outer loop
         vertex -1.470543e-018 -7.499999e-003 -7.500000e-003
         vertex -1.470543e-018 -3.750000e-002 2.250000e-002
         vertex -1.470543e-018 -7.499999e-003 2.250000e-002
      endloop
   endfacet
   facet normal 0.000000e+000 -1.000000e+000 0.000000e+000
      outer loop
         vertex -1.470543e-018 -3.750000e-002 2.250000e-002
         vertex -1.470543e-018 -3.750000e-002 -7.500000e-003
         vertex 3.000000e-002 -3.750000e-002 2.250000e-002
      endloop
   endfacet
   facet normal 0.000000e+000 -1.000000e+000 0.000000e+000
      outer loop
         vertex 3.000000e-002 -3.750000e-002 2.250000e-002
         vertex -1.470543e-018 -3.750000e-002 -7.500000e-003
         vertex 3.000000e-002 -3.750000e-002 -7.500000e-003
      endloop
   endfacet
endsolid